<svg width="54" height="54" viewBox="0 0 54 54" fill="none" xmlns="http://www.w3.org/2000/svg">
<path fill-rule="evenodd" clip-rule="evenodd" d="M52.2413 11.597C51.9875 10.9698 51.442 10.507 50.7818 10.359C50.1215 10.2109 49.4307 10.3963 48.9333 10.855L38.5507 20.4364L34.1116 19.4832L33.1584 15.0442L42.7398 4.66153C43.1985 4.16416 43.384 3.47328 43.2359 2.81304C43.0878 2.1528 42.625 1.6073 41.9978 1.35352C36.2793 -0.959717 29.785 -0.278905 24.6706 3.16997C19.5562 6.61884 16.4909 12.3845 16.4921 18.5531C16.4887 21.1183 17.015 23.6566 18.0379 26.0091L2.52575 39.4215C2.48711 39.4524 2.45104 39.4884 2.41497 39.5219C-0.804987 42.7419 -0.804987 47.9625 2.41497 51.1824C5.63493 54.4024 10.8555 54.4024 14.0755 51.1824C14.109 51.1489 14.145 51.1103 14.1759 51.0742L27.5858 35.557C33.3246 38.0761 39.9474 37.527 45.193 34.0972C50.4386 30.6673 53.5976 24.8205 53.5913 18.5531C53.5953 16.169 53.1369 13.8066 52.2413 11.597ZM35.0417 32.9806C32.6021 32.9773 30.203 32.3569 28.0675 31.1772C27.2149 30.7062 26.1489 30.8964 25.5118 31.6332L11.1101 48.3124C9.48943 49.8521 6.93683 49.8195 5.3561 48.2387C3.77537 46.658 3.74269 44.1054 5.28243 42.4847L21.9487 28.0856C22.6869 27.4481 22.8772 26.3805 22.4048 25.5273C19.7236 20.678 20.0566 14.7217 23.2615 10.2016C26.4665 5.68139 31.977 3.3961 37.4403 4.32146L29.4021 13.0321C28.9482 13.5244 28.7619 14.2065 28.9023 14.8612L30.3605 21.6447C30.5308 22.4372 31.1499 23.0563 31.9424 23.2266L38.731 24.6848C39.3857 24.8252 40.0679 24.6389 40.5602 24.185L49.2708 16.1468C49.9736 20.3342 48.7984 24.6186 46.0575 27.8613C43.3165 31.104 39.2876 32.9763 35.0417 32.9806Z" fill="#A2A2A2"/>
</svg>
