<svg width="50" height="52" viewBox="0 0 50 52" fill="none" xmlns="http://www.w3.org/2000/svg">
<path fill-rule="evenodd" clip-rule="evenodd" d="M48.1337 20.5471L27.523 1.10087C27.5129 1.09208 27.5034 1.08261 27.4947 1.07253C25.9222 -0.357509 23.5202 -0.357509 21.9478 1.07253L21.9195 1.10087L1.33197 20.5471C0.482922 21.3278 -0.000175287 22.4285 4.77104e-08 23.582V47.4002C4.77104e-08 49.6768 1.84554 51.5223 4.12214 51.5223H16.4886C18.7651 51.5223 20.6107 49.6768 20.6107 47.4002V35.0338H28.855V47.4002C28.855 49.6768 30.7005 51.5223 32.9771 51.5223H45.3435C47.6201 51.5223 49.4657 49.6768 49.4657 47.4002V23.582C49.4658 22.4285 48.9827 21.3278 48.1337 20.5471ZM45.3435 47.4002H32.9771V35.0338C32.9771 32.7572 31.1316 30.9116 28.855 30.9116H20.6107C18.3341 30.9116 16.4886 32.7572 16.4886 35.0338V47.4002H4.12214V23.582L4.15048 23.5562L24.7328 4.11776L45.3177 23.5511L45.3461 23.5768L45.3435 47.4002Z" fill="black"/>
</svg>
