<svg width="54" height="52" viewBox="0 0 54 52" fill="none" xmlns="http://www.w3.org/2000/svg">
<path fill-rule="evenodd" clip-rule="evenodd" d="M53.3354 48.4421C49.4116 41.6586 43.365 36.7944 36.3084 34.4886C43.4829 30.2176 46.9197 21.6794 44.7048 13.6289C42.49 5.57845 35.1694 -7.24792e-05 26.8198 -7.24792e-05C18.4701 -7.24792e-05 11.1496 5.57845 8.93467 13.6289C6.7198 21.6794 10.1566 30.2176 17.3311 34.4886C10.2745 36.7919 4.22786 41.656 0.304102 48.4421C-0.0876288 49.0808 -0.101854 49.8818 0.266951 50.534C0.635756 51.1863 1.32948 51.587 2.07875 51.5806C2.82801 51.5741 3.51477 51.1616 3.87233 50.5031C8.72614 42.1146 17.3053 37.1062 26.8198 37.1062C36.3342 37.1062 44.9134 42.1146 49.7672 50.5031C50.1247 51.1616 50.8115 51.5741 51.5608 51.5806C52.31 51.587 53.0037 51.1863 53.3726 50.534C53.7414 49.8818 53.7271 49.0808 53.3354 48.4421ZM12.3923 18.5566C12.3923 10.5885 18.8517 4.12907 26.8198 4.12907C34.7878 4.12907 41.2472 10.5885 41.2472 18.5566C41.2472 26.5246 34.7878 32.984 26.8198 32.984C18.8552 32.9755 12.4008 26.5211 12.3923 18.5566Z" fill="#A2A2A2"/>
</svg>
