<svg width="54" height="54" viewBox="0 0 54 54" fill="none" xmlns="http://www.w3.org/2000/svg">
<path fill-rule="evenodd" clip-rule="evenodd" d="M53.0419 50.1255L40.1422 37.2284C47.9093 27.9035 46.9681 14.1188 38.0058 5.93611C29.0434 -2.24657 15.2301 -1.93264 6.64875 6.64875C-1.93264 15.2301 -2.24657 29.0434 5.93611 38.0058C14.1188 46.9681 27.9035 47.9093 37.2284 40.1422L50.1255 53.0419C50.9308 53.8473 52.2366 53.8473 53.0419 53.0419C53.8473 52.2366 53.8473 50.9308 53.0419 50.1255ZM4.17912 22.7287C4.17912 12.4841 12.4841 4.17912 22.7287 4.17912C32.9734 4.17912 41.2784 12.4841 41.2784 22.7287C41.2784 32.9734 32.9734 41.2784 22.7287 41.2784C12.4888 41.267 4.19048 32.9687 4.17912 22.7287Z" fill="#638770"/>
</svg>
