<svg width="54" height="54" viewBox="0 0 54 54" fill="none" xmlns="http://www.w3.org/2000/svg">
<path fill-rule="evenodd" clip-rule="evenodd" d="M26.9591 14.5926C20.1293 14.5926 14.5927 20.1293 14.5927 26.959C14.5927 33.7888 20.1293 39.3254 26.9591 39.3254C33.7889 39.3254 39.3255 33.7888 39.3255 26.959C39.3184 20.1322 33.7859 14.5997 26.9591 14.5926ZM26.9591 35.2033C22.4059 35.2033 18.7148 31.5122 18.7148 26.959C18.7148 22.4058 22.4059 18.7148 26.9591 18.7148C31.5123 18.7148 35.2034 22.4058 35.2034 26.959C35.2034 31.5122 31.5123 35.2033 26.9591 35.2033ZM49.6308 27.5155C49.6411 27.1445 49.6411 26.7735 49.6308 26.4025L53.4747 21.6003C53.8835 21.0889 54.025 20.4138 53.856 19.7814C53.2259 17.4127 52.2833 15.1384 51.053 13.0185C50.7263 12.456 50.1533 12.0806 49.5072 12.006L43.3961 11.3258C43.1419 11.0579 42.8843 10.8003 42.6232 10.5529L41.9018 4.4264C41.8266 3.77974 41.4503 3.20663 40.8868 2.8806C38.766 1.65258 36.4919 0.710896 34.1239 0.080121C33.491 -0.0881338 32.8159 0.0543556 32.305 0.463995L27.5156 4.28728C27.1446 4.28728 26.7736 4.28728 26.4026 4.28728L21.6003 0.451113C21.089 0.0423713 20.4139 -0.0991526 19.7814 0.0698156C17.4131 0.701088 15.139 1.64366 13.0185 2.87287C12.456 3.1995 12.0807 3.7725 12.006 4.41867L11.3259 10.54C11.0579 10.796 10.8003 11.0536 10.553 11.3129L4.42645 12.0163C3.77978 12.0915 3.20668 12.4679 2.88064 13.0314C1.65263 15.1521 0.710942 17.4262 0.0801668 19.7942C-0.088088 20.4271 0.0544014 21.1022 0.464041 21.6131L4.28732 26.4025C4.28732 26.7735 4.28732 27.1445 4.28732 27.5155L0.451159 32.3178C0.042417 32.8292 -0.0991068 33.5043 0.0698614 34.1367C0.700006 36.5054 1.64263 38.7797 2.87291 40.8996C3.19954 41.4621 3.77255 41.8374 4.41872 41.9121L10.5298 42.5922C10.7857 42.8602 11.0433 43.1178 11.3027 43.3651L12.0163 49.4917C12.0916 50.1383 12.4679 50.7114 13.0314 51.0375C15.1522 52.2655 17.4262 53.2072 19.7943 53.8379C20.4271 54.0062 21.1023 53.8637 21.6132 53.4541L26.4026 49.6308C26.7736 49.6411 27.1446 49.6411 27.5156 49.6308L32.3179 53.4747C32.8292 53.8834 33.5043 54.025 34.1367 53.856C36.5054 53.2258 38.7797 52.2832 40.8996 51.0529C41.4622 50.7263 41.8375 50.1533 41.9121 49.5071L42.5923 43.3961C42.8602 43.1419 43.1179 42.8842 43.3652 42.6232L49.4917 41.9018C50.1384 41.8265 50.7115 41.4502 51.0375 40.8867C52.2655 38.766 53.2072 36.4919 53.838 34.1238C54.0062 33.491 53.8638 32.8158 53.4541 32.3049L49.6308 27.5155ZM45.4829 25.8409C45.5267 26.5857 45.5267 27.3324 45.4829 28.0772C45.4522 28.5871 45.612 29.0902 45.9312 29.489L49.587 34.0568C49.1675 35.39 48.6304 36.6833 47.982 37.9213L42.1595 38.5809C41.6524 38.6372 41.1842 38.8795 40.8455 39.261C40.3496 39.8188 39.8214 40.347 39.2637 40.8429C38.8821 41.1816 38.6398 41.6498 38.5835 42.1568L37.9368 47.9742C36.6989 48.623 35.4056 49.1601 34.0723 49.5793L29.5019 45.9234C29.1362 45.6312 28.6819 45.4722 28.2138 45.4726H28.0901C27.3453 45.5164 26.5986 45.5164 25.8538 45.4726C25.3439 45.4419 24.8408 45.6016 24.442 45.9209L19.8613 49.5793C18.5281 49.1598 17.2349 48.6226 15.9968 47.9742L15.3372 42.1594C15.2809 41.6524 15.0386 41.1842 14.6571 40.8455C14.0993 40.3496 13.5711 39.8214 13.0752 39.2636C12.7365 38.8821 12.2683 38.6397 11.7613 38.5835L5.94391 37.9342C5.29516 36.6963 4.75802 35.403 4.33885 34.0697L7.99467 29.4993C8.31389 29.1005 8.47365 28.5974 8.44295 28.0875C8.39916 27.3427 8.39916 26.596 8.44295 25.8512C8.47365 25.3413 8.31389 24.8382 7.99467 24.4394L4.33885 19.8612C4.75834 18.5281 5.29547 17.2348 5.94391 15.9967L11.7587 15.3372C12.2658 15.2809 12.7339 15.0386 13.0726 14.657C13.5685 14.0993 14.0967 13.5711 14.6545 13.0752C15.0375 12.7362 15.2809 12.267 15.3372 11.7587L15.9839 5.94386C17.2218 5.29512 18.5151 4.75798 19.8484 4.3388L24.4188 7.99463C24.8176 8.31385 25.3207 8.4736 25.8306 8.44291C26.5754 8.39911 27.3221 8.39911 28.0669 8.44291C28.5768 8.4736 29.0799 8.31385 29.4787 7.99463L34.0569 4.3388C35.3901 4.7583 36.6833 5.29543 37.9214 5.94386L38.5809 11.7587C38.6372 12.2657 38.8796 12.7339 39.2611 13.0726C39.8188 13.5685 40.347 14.0967 40.843 14.6545C41.1817 15.036 41.6498 15.2783 42.1569 15.3346L47.9743 15.9813C48.623 17.2192 49.1601 18.5125 49.5793 19.8458L45.9235 24.4162C45.6012 24.8183 45.4413 25.3267 45.4752 25.8409H45.4829Z" fill="#4E8A16"/>
</svg>
